<?xml version="1.0" encoding="utf-8"?>
<!-- Generator: Adobe Illustrator 23.0.5, SVG Export Plug-In . SVG Version: 6.00 Build 0)  -->
<svg version="1.1" id="Camada_1" xmlns="http://www.w3.org/2000/svg" xmlns:xlink="http://www.w3.org/1999/xlink" x="0px" y="0px"
	 viewBox="0 0 100 100" style="enable-background:new 0 0 100 100;" xml:space="preserve">
<style type="text/css">
	.st0{fill:#F7931A;}
	.st1{fill:#FFFFFF;}
</style>
<g>
	<path class="st0" d="M85.72,58.91c-4.92,19.73-24.9,31.73-44.63,26.81C21.37,80.8,9.37,60.82,14.29,41.1
		C19.2,21.37,39.18,9.36,58.9,14.28C78.63,19.2,90.63,39.18,85.72,58.91L85.72,58.91z"/>
	<path class="st1" d="M66.24,44.75c0.73-4.9-3-7.53-8.1-9.29l1.65-6.64l-4.04-1.01l-1.61,6.46c-1.06-0.26-2.15-0.51-3.24-0.76
		l1.62-6.5l-4.04-1.01l-1.66,6.63c-0.88-0.2-1.74-0.4-2.58-0.61l0-0.02l-5.57-1.39l-1.07,4.32c0,0,3,0.69,2.93,0.73
		c1.64,0.41,1.93,1.49,1.88,2.35l-1.89,7.59L37.89,56.2c-0.2,0.5-0.71,1.24-1.85,0.96c0.04,0.06-2.94-0.73-2.94-0.73l-2.01,4.63
		l5.26,1.31c0.98,0.25,1.94,0.5,2.88,0.74l-1.67,6.71l4.04,1.01l1.66-6.64c1.1,0.3,2.17,0.58,3.22,0.84l-1.65,6.61l4.04,1.01
		l1.67-6.7c6.89,1.3,12.07,0.78,14.25-5.45c1.76-5.02-0.09-7.91-3.71-9.8C63.72,50.08,65.7,48.34,66.24,44.75L66.24,44.75z M57,57.7
		c-1.25,5.02-9.7,2.31-12.44,1.62l2.22-8.89C49.53,51.11,58.31,52.47,57,57.7L57,57.7z M58.25,44.68
		c-1.14,4.56-8.17,2.25-10.45,1.68l2.01-8.07C52.09,38.86,59.44,39.92,58.25,44.68z"/>
</g>
</svg>
